<?xml version="1.0" encoding="UTF-8" standalone="no"?>
<svg 
     baseProfile="full"
     xmlns = "http://www.w3.org/2000/svg" 
     xmlns:xlink = "http://www.w3.org/1999/xlink"
     xmlns:ev = "http://www.w3.org/2001/xml-events"
	width="210mm" height="297mm" viewBox="0 0 210 297">
<g style="fill:none; stroke:black; stroke-width:0.4;" >
	<def>
		<g id="crux">
			<line x1="-5" x2="5" />
			<line y1="-5" y2="5" />
		</g>
	</def>
	<g transform="translate(32.5,0)">
		<g transform="translate(0,32.5)">
			<path d="M 0.1,6.9 L 0.1,9.4 L 0.1,9.8 L 0.0,10.0 L -0.1,10.2 L -0.3,10.6 L -0.5,10.9 L -0.8,11.3 L -1.1,11.7 L -1.4,12.0 L -1.8,12.4 A 12.5,12.5 0 0,1 -3.1,12.1 L -3.3,11.7 L -3.5,11.2 L -3.6,10.7 L -3.7,10.3 L -3.8,9.9 L -3.8,9.4 L -3.8,9.2 L -3.8,9.0 L -3.7,8.6 L -2.7,6.3 A 6.875,6.875 0 0,1 -4.8,4.9 L -6.5,6.7 L -6.9,7.0 L -7.1,7.1 L -7.2,7.1 L -7.6,7.3 L -8.1,7.4 L -8.5,7.5 L -9.0,7.5 L -9.5,7.5 L -10.0,7.5 A 12.5,12.5 0 0,1 -10.8,6.4 L -10.6,5.9 L -10.4,5.4 L -10.2,5.0 L -9.9,4.6 L -9.7,4.3 L -9.4,4.0 L -9.2,3.8 L -9.1,3.7 L -8.7,3.5 L -6.4,2.5 A 6.875,6.875 0 0,1 -6.9,0.1 L -9.4,0.1 L -9.8,0.1 L -10.0,0.0 L -10.2,-0.1 L -10.6,-0.3 L -10.9,-0.5 L -11.3,-0.8 L -11.7,-1.1 L -12.0,-1.4 L -12.4,-1.8 A 12.5,12.5 0 0,1 -12.1,-3.1 L -11.7,-3.3 L -11.2,-3.5 L -10.7,-3.6 L -10.3,-3.7 L -9.9,-3.8 L -9.4,-3.8 L -9.2,-3.8 L -9.0,-3.8 L -8.6,-3.7 L -6.3,-2.7 A 6.875,6.875 0 0,1 -4.9,-4.8 L -6.7,-6.5 L -7.0,-6.9 L -7.1,-7.1 L -7.1,-7.2 L -7.3,-7.6 L -7.4,-8.1 L -7.5,-8.5 L -7.5,-9.0 L -7.5,-9.5 L -7.5,-10.0 A 12.5,12.5 0 0,1 -6.4,-10.8 L -5.9,-10.6 L -5.4,-10.4 L -5.0,-10.2 L -4.6,-9.9 L -4.3,-9.7 L -4.0,-9.4 L -3.8,-9.2 L -3.7,-9.1 L -3.5,-8.7 L -2.5,-6.4 A 6.875,6.875 0 0,1 -0.1,-6.9 L -0.1,-9.4 L -0.1,-9.8 L -0.0,-10.0 L 0.1,-10.2 L 0.3,-10.6 L 0.5,-10.9 L 0.8,-11.3 L 1.1,-11.7 L 1.4,-12.0 L 1.8,-12.4 A 12.5,12.5 0 0,1 3.1,-12.1 L 3.3,-11.7 L 3.5,-11.2 L 3.6,-10.7 L 3.7,-10.3 L 3.8,-9.9 L 3.8,-9.4 L 3.8,-9.2 L 3.8,-9.0 L 3.7,-8.6 L 2.7,-6.3 A 6.875,6.875 0 0,1 4.8,-4.9 L 6.5,-6.7 L 6.9,-7.0 L 7.1,-7.1 L 7.2,-7.1 L 7.6,-7.3 L 8.1,-7.4 L 8.5,-7.5 L 9.0,-7.5 L 9.5,-7.5 L 10.0,-7.5 A 12.5,12.5 0 0,1 10.8,-6.4 L 10.6,-5.9 L 10.4,-5.4 L 10.2,-5.0 L 9.9,-4.6 L 9.7,-4.3 L 9.4,-4.0 L 9.2,-3.8 L 9.1,-3.7 L 8.7,-3.5 L 6.4,-2.5 A 6.875,6.875 0 0,1 6.9,-0.1 L 9.4,-0.1 L 9.8,-0.1 L 10.0,-0.0 L 10.2,0.1 L 10.6,0.3 L 10.9,0.5 L 11.3,0.8 L 11.7,1.1 L 12.0,1.4 L 12.4,1.8 A 12.5,12.5 0 0,1 12.1,3.1 L 11.7,3.3 L 11.2,3.5 L 10.7,3.6 L 10.3,3.7 L 9.9,3.8 L 9.4,3.8 L 9.2,3.8 L 9.0,3.8 L 8.6,3.7 L 6.3,2.7 A 6.875,6.875 0 0,1 4.9,4.8 L 6.7,6.5 L 7.0,6.9 L 7.1,7.1 L 7.1,7.2 L 7.3,7.6 L 7.4,8.1 L 7.5,8.5 L 7.5,9.0 L 7.5,9.5 L 7.5,10.0 A 12.5,12.5 0 0,1 6.4,10.8 L 5.9,10.6 L 5.4,10.4 L 5.0,10.2 L 4.6,9.9 L 4.3,9.7 L 4.0,9.4 L 3.8,9.2 L 3.7,9.1 L 3.5,8.7 L 2.5,6.4 A 6.875,6.875 0 0,1 0.1,6.9 Z" />
			<circle r="3" />
			<use href="#crux" />
			<circle cx="32.5" r="3" />
			<use href="#crux" x="32.5"/>
		</g>
		<g transform="translate(0, 77.5)">
			<path d="M 0.3,16.9 L 0.3,18.8 L 0.2,19.3 L 0.1,19.7 L 0.0,20.0 L -0.1,20.2 L -0.3,20.6 L -0.5,21.1 L -0.8,21.6 L -1.1,22.0 L -1.4,22.5 A 22.5,22.5 0 0,1 -3.0,22.3 L -3.3,21.8 L -3.5,21.3 L -3.6,20.8 L -3.8,20.3 L -3.9,19.8 L -3.9,19.6 L -3.9,19.3 L -4.0,18.8 L -3.9,18.4 L -3.5,16.5 A 16.875,16.875 0 0,1 -6.2,15.7 L -6.9,17.5 L -7.2,17.9 L -7.5,18.3 L -7.7,18.5 L -7.8,18.6 L -8.1,19.0 L -8.5,19.3 L -9.0,19.6 L -9.4,19.9 L -9.9,20.2 A 22.5,22.5 0 0,1 -11.3,19.4 L -11.4,18.9 L -11.3,18.4 L -11.3,17.8 L -11.2,17.3 L -11.2,16.8 L -11.1,16.6 L -11.0,16.3 L -10.9,15.9 L -10.7,15.5 L -9.6,13.9 A 16.875,16.875 0 0,1 -11.8,12.1 L -13.1,13.5 L -13.5,13.8 L -13.9,14.0 L -14.1,14.1 L -14.3,14.2 L -14.8,14.4 L -15.3,14.6 L -15.8,14.7 L -16.3,14.8 L -16.9,14.9 A 22.5,22.5 0 0,1 -17.9,13.6 L -17.7,13.1 L -17.5,12.6 L -17.3,12.1 L -17.0,11.7 L -16.7,11.3 L -16.6,11.1 L -16.4,10.9 L -16.1,10.5 L -15.8,10.2 L -14.2,9.2 A 16.875,16.875 0 0,1 -15.5,6.7 L -17.3,7.5 L -17.7,7.6 L -18.2,7.6 L -18.5,7.7 L -18.7,7.7 L -19.2,7.7 L -19.7,7.6 L -20.2,7.5 L -20.7,7.4 L -21.3,7.3 A 22.5,22.5 0 0,1 -21.8,5.7 L -21.4,5.3 L -21.0,5.0 L -20.6,4.6 L -20.2,4.3 L -19.8,4.0 L -19.6,3.9 L -19.4,3.8 L -18.9,3.5 L -18.5,3.4 L -16.6,3.0 A 16.875,16.875 0 0,1 -16.9,0.3 L -18.8,0.3 L -19.3,0.2 L -19.7,0.1 L -20.0,0.0 L -20.2,-0.1 L -20.6,-0.3 L -21.1,-0.5 L -21.6,-0.8 L -22.0,-1.1 L -22.5,-1.4 A 22.5,22.5 0 0,1 -22.3,-3.0 L -21.8,-3.3 L -21.3,-3.5 L -20.8,-3.6 L -20.3,-3.8 L -19.8,-3.9 L -19.6,-3.9 L -19.3,-3.9 L -18.8,-4.0 L -18.4,-3.9 L -16.5,-3.5 A 16.875,16.875 0 0,1 -15.7,-6.2 L -17.5,-6.9 L -17.9,-7.2 L -18.3,-7.5 L -18.5,-7.7 L -18.6,-7.8 L -19.0,-8.1 L -19.3,-8.5 L -19.6,-9.0 L -19.9,-9.4 L -20.2,-9.9 A 22.5,22.5 0 0,1 -19.4,-11.3 L -18.9,-11.4 L -18.4,-11.3 L -17.8,-11.3 L -17.3,-11.2 L -16.8,-11.2 L -16.6,-11.1 L -16.3,-11.0 L -15.9,-10.9 L -15.5,-10.7 L -13.9,-9.6 A 16.875,16.875 0 0,1 -12.1,-11.8 L -13.5,-13.1 L -13.8,-13.5 L -14.0,-13.9 L -14.1,-14.1 L -14.2,-14.3 L -14.4,-14.8 L -14.6,-15.3 L -14.7,-15.8 L -14.8,-16.3 L -14.9,-16.9 A 22.5,22.5 0 0,1 -13.6,-17.9 L -13.1,-17.7 L -12.6,-17.5 L -12.1,-17.3 L -11.7,-17.0 L -11.3,-16.7 L -11.1,-16.6 L -10.9,-16.4 L -10.5,-16.1 L -10.2,-15.8 L -9.2,-14.2 A 16.875,16.875 0 0,1 -6.7,-15.5 L -7.5,-17.3 L -7.6,-17.7 L -7.6,-18.2 L -7.7,-18.5 L -7.7,-18.7 L -7.7,-19.2 L -7.6,-19.7 L -7.5,-20.2 L -7.4,-20.7 L -7.3,-21.3 A 22.5,22.5 0 0,1 -5.7,-21.8 L -5.3,-21.4 L -5.0,-21.0 L -4.6,-20.6 L -4.3,-20.2 L -4.0,-19.8 L -3.9,-19.6 L -3.8,-19.4 L -3.5,-18.9 L -3.4,-18.5 L -3.0,-16.6 A 16.875,16.875 0 0,1 -0.3,-16.9 L -0.3,-18.8 L -0.2,-19.3 L -0.1,-19.7 L -0.0,-20.0 L 0.1,-20.2 L 0.3,-20.6 L 0.5,-21.1 L 0.8,-21.6 L 1.1,-22.0 L 1.4,-22.5 A 22.5,22.5 0 0,1 3.0,-22.3 L 3.3,-21.8 L 3.5,-21.3 L 3.6,-20.8 L 3.8,-20.3 L 3.9,-19.8 L 3.9,-19.6 L 3.9,-19.3 L 4.0,-18.8 L 3.9,-18.4 L 3.5,-16.5 A 16.875,16.875 0 0,1 6.2,-15.7 L 6.9,-17.5 L 7.2,-17.9 L 7.5,-18.3 L 7.7,-18.5 L 7.8,-18.6 L 8.1,-19.0 L 8.5,-19.3 L 9.0,-19.6 L 9.4,-19.9 L 9.9,-20.2 A 22.5,22.5 0 0,1 11.3,-19.4 L 11.4,-18.9 L 11.3,-18.4 L 11.3,-17.8 L 11.2,-17.3 L 11.2,-16.8 L 11.1,-16.6 L 11.0,-16.3 L 10.9,-15.9 L 10.7,-15.5 L 9.6,-13.9 A 16.875,16.875 0 0,1 11.8,-12.1 L 13.1,-13.5 L 13.5,-13.8 L 13.9,-14.0 L 14.1,-14.1 L 14.3,-14.2 L 14.8,-14.4 L 15.3,-14.6 L 15.8,-14.7 L 16.3,-14.8 L 16.9,-14.9 A 22.5,22.5 0 0,1 17.9,-13.6 L 17.7,-13.1 L 17.5,-12.6 L 17.3,-12.1 L 17.0,-11.7 L 16.7,-11.3 L 16.6,-11.1 L 16.4,-10.9 L 16.1,-10.5 L 15.8,-10.2 L 14.2,-9.2 A 16.875,16.875 0 0,1 15.5,-6.7 L 17.3,-7.5 L 17.7,-7.6 L 18.2,-7.6 L 18.5,-7.7 L 18.7,-7.7 L 19.2,-7.7 L 19.7,-7.6 L 20.2,-7.5 L 20.7,-7.4 L 21.3,-7.3 A 22.5,22.5 0 0,1 21.8,-5.7 L 21.4,-5.3 L 21.0,-5.0 L 20.6,-4.6 L 20.2,-4.3 L 19.8,-4.0 L 19.6,-3.9 L 19.4,-3.8 L 18.9,-3.5 L 18.5,-3.4 L 16.6,-3.0 A 16.875,16.875 0 0,1 16.9,-0.3 L 18.8,-0.3 L 19.3,-0.2 L 19.7,-0.1 L 20.0,-0.0 L 20.2,0.1 L 20.6,0.3 L 21.1,0.5 L 21.6,0.8 L 22.0,1.1 L 22.5,1.4 A 22.5,22.5 0 0,1 22.3,3.0 L 21.8,3.3 L 21.3,3.5 L 20.8,3.6 L 20.3,3.8 L 19.8,3.9 L 19.6,3.9 L 19.3,3.9 L 18.8,4.0 L 18.4,3.9 L 16.5,3.5 A 16.875,16.875 0 0,1 15.7,6.2 L 17.5,6.9 L 17.9,7.2 L 18.3,7.5 L 18.5,7.7 L 18.6,7.8 L 19.0,8.1 L 19.3,8.5 L 19.6,9.0 L 19.9,9.4 L 20.2,9.9 A 22.5,22.5 0 0,1 19.4,11.3 L 18.9,11.4 L 18.4,11.3 L 17.8,11.3 L 17.3,11.2 L 16.8,11.2 L 16.6,11.1 L 16.3,11.0 L 15.9,10.9 L 15.5,10.7 L 13.9,9.6 A 16.875,16.875 0 0,1 12.1,11.8 L 13.5,13.1 L 13.8,13.5 L 14.0,13.9 L 14.1,14.1 L 14.2,14.3 L 14.4,14.8 L 14.6,15.3 L 14.7,15.8 L 14.8,16.3 L 14.9,16.9 A 22.5,22.5 0 0,1 13.6,17.9 L 13.1,17.7 L 12.6,17.5 L 12.1,17.3 L 11.7,17.0 L 11.3,16.7 L 11.1,16.6 L 10.9,16.4 L 10.5,16.1 L 10.2,15.8 L 9.2,14.2 A 16.875,16.875 0 0,1 6.7,15.5 L 7.5,17.3 L 7.6,17.7 L 7.6,18.2 L 7.7,18.5 L 7.7,18.7 L 7.7,19.2 L 7.6,19.7 L 7.5,20.2 L 7.4,20.7 L 7.3,21.3 A 22.5,22.5 0 0,1 5.7,21.8 L 5.3,21.4 L 5.0,21.0 L 4.6,20.6 L 4.3,20.2 L 4.0,19.8 L 3.9,19.6 L 3.8,19.4 L 3.5,18.9 L 3.4,18.5 L 3.0,16.6 A 16.875,16.875 0 0,1 0.3,16.9 Z" />
			<circle r="3" />
			<use href="#crux" />
			<circle cx="32.5" r="3" />
			<use href="#crux" x="32.5"/>
		</g>
	</g>
	<g transform="translate(110,0) scale(-1, 1)">
		<g transform="translate(0,32.5)">
			<path d="M 0.1,6.9 L 0.1,9.4 L 0.1,9.8 L 0.0,10.0 L -0.1,10.2 L -0.3,10.6 L -0.5,10.9 L -0.8,11.3 L -1.1,11.7 L -1.4,12.0 L -1.8,12.4 A 12.5,12.5 0 0,1 -3.1,12.1 L -3.3,11.7 L -3.5,11.2 L -3.6,10.7 L -3.7,10.3 L -3.8,9.9 L -3.8,9.4 L -3.8,9.2 L -3.8,9.0 L -3.7,8.6 L -2.7,6.3 A 6.875,6.875 0 0,1 -4.8,4.9 L -6.5,6.7 L -6.9,7.0 L -7.1,7.1 L -7.2,7.1 L -7.6,7.3 L -8.1,7.4 L -8.5,7.5 L -9.0,7.5 L -9.5,7.5 L -10.0,7.5 A 12.5,12.5 0 0,1 -10.8,6.4 L -10.6,5.9 L -10.4,5.4 L -10.2,5.0 L -9.9,4.6 L -9.7,4.3 L -9.4,4.0 L -9.2,3.8 L -9.1,3.7 L -8.7,3.5 L -6.4,2.5 A 6.875,6.875 0 0,1 -6.9,0.1 L -9.4,0.1 L -9.8,0.1 L -10.0,0.0 L -10.2,-0.1 L -10.6,-0.3 L -10.9,-0.5 L -11.3,-0.8 L -11.7,-1.1 L -12.0,-1.4 L -12.4,-1.8 A 12.5,12.5 0 0,1 -12.1,-3.1 L -11.7,-3.3 L -11.2,-3.5 L -10.7,-3.6 L -10.3,-3.7 L -9.9,-3.8 L -9.4,-3.8 L -9.2,-3.8 L -9.0,-3.8 L -8.6,-3.7 L -6.3,-2.7 A 6.875,6.875 0 0,1 -4.9,-4.8 L -6.7,-6.5 L -7.0,-6.9 L -7.1,-7.1 L -7.1,-7.2 L -7.3,-7.6 L -7.4,-8.1 L -7.5,-8.5 L -7.5,-9.0 L -7.5,-9.5 L -7.5,-10.0 A 12.5,12.5 0 0,1 -6.4,-10.8 L -5.9,-10.6 L -5.4,-10.4 L -5.0,-10.2 L -4.6,-9.9 L -4.3,-9.7 L -4.0,-9.4 L -3.8,-9.2 L -3.7,-9.1 L -3.5,-8.7 L -2.5,-6.4 A 6.875,6.875 0 0,1 -0.1,-6.9 L -0.1,-9.4 L -0.1,-9.8 L -0.0,-10.0 L 0.1,-10.2 L 0.3,-10.6 L 0.5,-10.9 L 0.8,-11.3 L 1.1,-11.7 L 1.4,-12.0 L 1.8,-12.4 A 12.5,12.5 0 0,1 3.1,-12.1 L 3.3,-11.7 L 3.5,-11.2 L 3.6,-10.7 L 3.7,-10.3 L 3.8,-9.9 L 3.8,-9.4 L 3.8,-9.2 L 3.8,-9.0 L 3.7,-8.6 L 2.7,-6.3 A 6.875,6.875 0 0,1 4.8,-4.9 L 6.5,-6.7 L 6.9,-7.0 L 7.1,-7.1 L 7.2,-7.1 L 7.6,-7.3 L 8.1,-7.4 L 8.5,-7.5 L 9.0,-7.5 L 9.5,-7.5 L 10.0,-7.5 A 12.5,12.5 0 0,1 10.8,-6.4 L 10.6,-5.9 L 10.4,-5.4 L 10.2,-5.0 L 9.9,-4.6 L 9.7,-4.3 L 9.4,-4.0 L 9.2,-3.8 L 9.1,-3.7 L 8.7,-3.5 L 6.4,-2.5 A 6.875,6.875 0 0,1 6.9,-0.1 L 9.4,-0.1 L 9.8,-0.1 L 10.0,-0.0 L 10.2,0.1 L 10.6,0.3 L 10.9,0.5 L 11.3,0.8 L 11.7,1.1 L 12.0,1.4 L 12.4,1.8 A 12.5,12.5 0 0,1 12.1,3.1 L 11.7,3.3 L 11.2,3.5 L 10.7,3.6 L 10.3,3.7 L 9.9,3.8 L 9.4,3.8 L 9.2,3.8 L 9.0,3.8 L 8.6,3.7 L 6.3,2.7 A 6.875,6.875 0 0,1 4.9,4.8 L 6.7,6.5 L 7.0,6.9 L 7.1,7.1 L 7.1,7.2 L 7.3,7.6 L 7.4,8.1 L 7.5,8.5 L 7.5,9.0 L 7.5,9.5 L 7.5,10.0 A 12.5,12.5 0 0,1 6.4,10.8 L 5.9,10.6 L 5.4,10.4 L 5.0,10.2 L 4.6,9.9 L 4.3,9.7 L 4.0,9.4 L 3.8,9.2 L 3.7,9.1 L 3.5,8.7 L 2.5,6.4 A 6.875,6.875 0 0,1 0.1,6.9 Z" />
			<circle r="3" />
			<use href="#crux" />
			<circle cx="32.5" r="3" />
			<use href="#crux" x="32.5"/>
		</g>
		<g transform="translate(0, 77.5)">
			<path d="M 0.3,16.9 L 0.3,18.8 L 0.2,19.3 L 0.1,19.7 L 0.0,20.0 L -0.1,20.2 L -0.3,20.6 L -0.5,21.1 L -0.8,21.6 L -1.1,22.0 L -1.4,22.5 A 22.5,22.5 0 0,1 -3.0,22.3 L -3.3,21.8 L -3.5,21.3 L -3.6,20.8 L -3.8,20.3 L -3.9,19.8 L -3.9,19.6 L -3.9,19.3 L -4.0,18.8 L -3.9,18.4 L -3.5,16.5 A 16.875,16.875 0 0,1 -6.2,15.7 L -6.9,17.5 L -7.2,17.9 L -7.5,18.3 L -7.7,18.5 L -7.8,18.6 L -8.1,19.0 L -8.5,19.3 L -9.0,19.6 L -9.4,19.9 L -9.9,20.2 A 22.5,22.5 0 0,1 -11.3,19.4 L -11.4,18.9 L -11.3,18.4 L -11.3,17.8 L -11.2,17.3 L -11.2,16.8 L -11.1,16.6 L -11.0,16.3 L -10.9,15.9 L -10.7,15.5 L -9.6,13.9 A 16.875,16.875 0 0,1 -11.8,12.1 L -13.1,13.5 L -13.5,13.8 L -13.9,14.0 L -14.1,14.1 L -14.3,14.2 L -14.8,14.4 L -15.3,14.6 L -15.8,14.7 L -16.3,14.8 L -16.9,14.9 A 22.5,22.5 0 0,1 -17.9,13.6 L -17.7,13.1 L -17.5,12.6 L -17.3,12.1 L -17.0,11.7 L -16.7,11.3 L -16.6,11.1 L -16.4,10.9 L -16.1,10.5 L -15.8,10.2 L -14.2,9.2 A 16.875,16.875 0 0,1 -15.5,6.7 L -17.3,7.5 L -17.7,7.6 L -18.2,7.6 L -18.5,7.7 L -18.7,7.7 L -19.2,7.7 L -19.7,7.6 L -20.2,7.5 L -20.7,7.4 L -21.3,7.3 A 22.5,22.5 0 0,1 -21.8,5.7 L -21.4,5.3 L -21.0,5.0 L -20.6,4.6 L -20.2,4.3 L -19.8,4.0 L -19.6,3.9 L -19.4,3.8 L -18.9,3.5 L -18.5,3.4 L -16.6,3.0 A 16.875,16.875 0 0,1 -16.9,0.3 L -18.8,0.3 L -19.3,0.2 L -19.7,0.1 L -20.0,0.0 L -20.2,-0.1 L -20.6,-0.3 L -21.1,-0.5 L -21.6,-0.8 L -22.0,-1.1 L -22.5,-1.4 A 22.5,22.5 0 0,1 -22.3,-3.0 L -21.8,-3.3 L -21.3,-3.5 L -20.8,-3.6 L -20.3,-3.8 L -19.8,-3.9 L -19.6,-3.9 L -19.3,-3.9 L -18.8,-4.0 L -18.4,-3.9 L -16.5,-3.5 A 16.875,16.875 0 0,1 -15.7,-6.2 L -17.5,-6.9 L -17.9,-7.2 L -18.3,-7.5 L -18.5,-7.7 L -18.6,-7.8 L -19.0,-8.1 L -19.3,-8.5 L -19.6,-9.0 L -19.9,-9.4 L -20.2,-9.9 A 22.5,22.5 0 0,1 -19.4,-11.3 L -18.9,-11.4 L -18.4,-11.3 L -17.8,-11.3 L -17.3,-11.2 L -16.8,-11.2 L -16.6,-11.1 L -16.3,-11.0 L -15.9,-10.9 L -15.5,-10.7 L -13.9,-9.6 A 16.875,16.875 0 0,1 -12.1,-11.8 L -13.5,-13.1 L -13.8,-13.5 L -14.0,-13.9 L -14.1,-14.1 L -14.2,-14.3 L -14.4,-14.8 L -14.6,-15.3 L -14.7,-15.8 L -14.8,-16.3 L -14.9,-16.9 A 22.5,22.5 0 0,1 -13.6,-17.9 L -13.1,-17.7 L -12.6,-17.5 L -12.1,-17.3 L -11.7,-17.0 L -11.3,-16.7 L -11.1,-16.6 L -10.9,-16.4 L -10.5,-16.1 L -10.2,-15.8 L -9.2,-14.2 A 16.875,16.875 0 0,1 -6.7,-15.5 L -7.5,-17.3 L -7.6,-17.7 L -7.6,-18.2 L -7.7,-18.5 L -7.7,-18.7 L -7.7,-19.2 L -7.6,-19.7 L -7.5,-20.2 L -7.4,-20.7 L -7.3,-21.3 A 22.5,22.5 0 0,1 -5.7,-21.8 L -5.3,-21.4 L -5.0,-21.0 L -4.6,-20.6 L -4.3,-20.2 L -4.0,-19.8 L -3.9,-19.6 L -3.8,-19.4 L -3.5,-18.9 L -3.4,-18.5 L -3.0,-16.6 A 16.875,16.875 0 0,1 -0.3,-16.9 L -0.3,-18.8 L -0.2,-19.3 L -0.1,-19.7 L -0.0,-20.0 L 0.1,-20.2 L 0.3,-20.6 L 0.5,-21.1 L 0.8,-21.6 L 1.1,-22.0 L 1.4,-22.5 A 22.5,22.5 0 0,1 3.0,-22.3 L 3.3,-21.8 L 3.5,-21.3 L 3.6,-20.8 L 3.8,-20.3 L 3.9,-19.8 L 3.9,-19.6 L 3.9,-19.3 L 4.0,-18.8 L 3.9,-18.4 L 3.5,-16.5 A 16.875,16.875 0 0,1 6.2,-15.7 L 6.9,-17.5 L 7.2,-17.9 L 7.5,-18.3 L 7.7,-18.5 L 7.8,-18.6 L 8.1,-19.0 L 8.5,-19.3 L 9.0,-19.6 L 9.4,-19.9 L 9.9,-20.2 A 22.5,22.5 0 0,1 11.3,-19.4 L 11.4,-18.9 L 11.3,-18.4 L 11.3,-17.8 L 11.2,-17.3 L 11.2,-16.8 L 11.1,-16.6 L 11.0,-16.3 L 10.9,-15.9 L 10.7,-15.5 L 9.6,-13.9 A 16.875,16.875 0 0,1 11.8,-12.1 L 13.1,-13.5 L 13.5,-13.8 L 13.9,-14.0 L 14.1,-14.1 L 14.3,-14.2 L 14.8,-14.4 L 15.3,-14.6 L 15.8,-14.7 L 16.3,-14.8 L 16.9,-14.9 A 22.5,22.5 0 0,1 17.9,-13.6 L 17.7,-13.1 L 17.5,-12.6 L 17.3,-12.1 L 17.0,-11.7 L 16.7,-11.3 L 16.6,-11.1 L 16.4,-10.9 L 16.1,-10.5 L 15.8,-10.2 L 14.2,-9.2 A 16.875,16.875 0 0,1 15.5,-6.7 L 17.3,-7.5 L 17.7,-7.6 L 18.2,-7.6 L 18.5,-7.7 L 18.7,-7.7 L 19.2,-7.7 L 19.7,-7.6 L 20.2,-7.5 L 20.7,-7.4 L 21.3,-7.3 A 22.5,22.5 0 0,1 21.8,-5.7 L 21.4,-5.3 L 21.0,-5.0 L 20.6,-4.6 L 20.2,-4.3 L 19.8,-4.0 L 19.6,-3.9 L 19.4,-3.8 L 18.9,-3.5 L 18.5,-3.4 L 16.6,-3.0 A 16.875,16.875 0 0,1 16.9,-0.3 L 18.8,-0.3 L 19.3,-0.2 L 19.7,-0.1 L 20.0,-0.0 L 20.2,0.1 L 20.6,0.3 L 21.1,0.5 L 21.6,0.8 L 22.0,1.1 L 22.5,1.4 A 22.5,22.5 0 0,1 22.3,3.0 L 21.8,3.3 L 21.3,3.5 L 20.8,3.6 L 20.3,3.8 L 19.8,3.9 L 19.6,3.9 L 19.3,3.9 L 18.8,4.0 L 18.4,3.9 L 16.5,3.5 A 16.875,16.875 0 0,1 15.7,6.2 L 17.5,6.9 L 17.9,7.2 L 18.3,7.5 L 18.5,7.7 L 18.6,7.8 L 19.0,8.1 L 19.3,8.5 L 19.6,9.0 L 19.9,9.4 L 20.2,9.9 A 22.5,22.5 0 0,1 19.4,11.3 L 18.9,11.4 L 18.4,11.3 L 17.8,11.3 L 17.3,11.2 L 16.8,11.2 L 16.6,11.1 L 16.3,11.0 L 15.9,10.9 L 15.5,10.7 L 13.9,9.6 A 16.875,16.875 0 0,1 12.1,11.8 L 13.5,13.1 L 13.8,13.5 L 14.0,13.9 L 14.1,14.1 L 14.2,14.3 L 14.4,14.8 L 14.6,15.3 L 14.7,15.8 L 14.8,16.3 L 14.9,16.9 A 22.5,22.5 0 0,1 13.6,17.9 L 13.1,17.7 L 12.6,17.5 L 12.1,17.3 L 11.7,17.0 L 11.3,16.7 L 11.1,16.6 L 10.9,16.4 L 10.5,16.1 L 10.2,15.8 L 9.2,14.2 A 16.875,16.875 0 0,1 6.7,15.5 L 7.5,17.3 L 7.6,17.7 L 7.6,18.2 L 7.7,18.5 L 7.7,18.7 L 7.7,19.2 L 7.6,19.7 L 7.5,20.2 L 7.4,20.7 L 7.3,21.3 A 22.5,22.5 0 0,1 5.7,21.8 L 5.3,21.4 L 5.0,21.0 L 4.6,20.6 L 4.3,20.2 L 4.0,19.8 L 3.9,19.6 L 3.8,19.4 L 3.5,18.9 L 3.4,18.5 L 3.0,16.6 A 16.875,16.875 0 0,1 0.3,16.9 Z" />
			<circle r="3" />
			<use href="#crux" />
			<circle cx="32.5" r="3" />
			<use href="#crux" x="32.5"/>
		</g>
	</g>
</g>
</svg>